<svg width="227" height="227" viewBox="0 0 227 227" fill="none" xmlns="http://www.w3.org/2000/svg">
<path d="M114.569 129.425C114.358 129.425 114.042 129.425 113.831 129.425C113.515 129.425 113.094 129.425 112.778 129.425C88.8526 128.687 70.9355 110.032 70.9355 87.0558C70.9355 63.6582 90.012 44.5818 113.41 44.5818C136.808 44.5818 155.884 63.6582 155.884 87.0558C155.779 110.137 137.756 128.687 114.885 129.425C114.675 129.425 114.675 129.425 114.569 129.425ZM113.305 60.2856C98.5493 60.2856 86.6394 72.3006 86.6394 86.9504C86.6394 101.39 97.9169 113.089 112.251 113.616C112.567 113.51 113.621 113.51 114.675 113.616C128.798 112.878 139.864 101.284 139.969 86.9504C139.969 72.3006 128.06 60.2856 113.305 60.2856Z" fill="#292D32"/>
<path d="M113.308 226.599C84.9565 226.599 57.8701 216.06 36.8965 196.878C34.9994 195.192 34.1563 192.662 34.3671 190.238C35.7372 177.696 43.5364 165.997 56.4999 157.355C87.9076 136.487 138.813 136.487 170.115 157.355C183.079 166.103 190.878 177.696 192.248 190.238C192.564 192.768 191.616 195.192 189.719 196.878C168.745 216.06 141.659 226.599 113.308 226.599ZM50.914 188.13C68.4095 202.78 90.437 210.79 113.308 210.79C136.178 210.79 158.206 202.78 175.701 188.13C173.804 181.701 168.745 175.483 161.262 170.424C135.335 153.139 91.3856 153.139 65.2477 170.424C57.7647 175.483 52.8111 181.701 50.914 188.13Z" fill="#292D32"/>
<path d="M113.299 226.599C50.8002 226.599 0 175.798 0 113.299C0 50.8002 50.8002 0 113.299 0C175.798 0 226.599 50.8002 226.599 113.299C226.599 175.798 175.798 226.599 113.299 226.599ZM113.299 15.8092C59.548 15.8092 15.8092 59.548 15.8092 113.299C15.8092 167.051 59.548 210.789 113.299 210.789C167.051 210.789 210.789 167.051 210.789 113.299C210.789 59.548 167.051 15.8092 113.299 15.8092Z" fill="#292D32"/>
</svg>
